<svg xmlns="http://www.w3.org/2000/svg"  viewBox="0 0 40 40" width="40px" height="40px"><path fill="#b6dcfe" d="M10,37.5c-4.136,0-7.5-3.364-7.5-7.5V10c0-4.136,3.364-7.5,7.5-7.5h20c4.136,0,7.5,3.364,7.5,7.5v20 c0,4.136-3.364,7.5-7.5,7.5H10z"/><path fill="#4788c7" d="M30,3c3.86,0,7,3.14,7,7v20c0,3.86-3.14,7-7,7H10c-3.86,0-7-3.14-7-7V10c0-3.86,3.14-7,7-7H30 M30,2H10c-4.418,0-8,3.582-8,8v20c0,4.418,3.582,8,8,8h20c4.418,0,8-3.582,8-8V10C38,5.582,34.418,2,30,2L30,2z"/><path fill="#98ccfd" d="M30,36H10c-3.314,0-6-2.686-6-6V10c0-3.314,2.686-6,6-6h20c3.314,0,6,2.686,6,6v20 C36,33.314,33.314,36,30,36z"/><g><path fill="#dff0fe" d="M30,35H10c-2.761,0-5-2.239-5-5V10c0-2.761,2.239-5,5-5h20c2.761,0,5,2.239,5,5v20 C35,32.761,32.761,35,30,35z"/></g></svg>